<svg width="30" height="30" viewBox="0 0 30 30" fill="none" xmlns="http://www.w3.org/2000/svg">
<rect width="30" height="30" rx="15" fill="#00A9E7"/>
<path d="M22.7386 15.8011C22.7898 15.392 22.8409 15.0341 22.8409 14.625C22.8409 10.5341 19.517 7.15909 15.375 7.15909C14.9659 7.15909 14.608 7.21023 14.1989 7.26136C13.5341 6.90341 12.8182 6.75 12.1023 6.75C9.54545 6.75 7.5 8.79545 7.5 11.3523C7.5 12.0682 7.65341 12.7841 8.01136 13.4489C7.96023 13.858 7.90909 14.2159 7.90909 14.625C7.90909 18.7159 11.233 22.0909 15.375 22.0909C15.7841 22.0909 16.142 22.0398 16.5511 21.9886C17.2159 22.2955 17.9318 22.5 18.6477 22.5C21.2045 22.5 23.25 20.4545 23.25 17.8977C23.25 17.1818 23.0455 16.4659 22.7386 15.8011ZM18.4943 17.3352C18.3409 17.642 18.1364 17.8977 17.8295 18.1023C17.5227 18.3068 17.2159 18.4602 16.8068 18.5625C16.3977 18.6648 15.9375 18.7159 15.4261 18.7159C14.3523 18.7159 13.483 18.4602 12.8693 18C12.5114 17.6932 12.2045 17.3352 12.0511 16.875C11.8466 16.4659 12.2045 15.9545 12.7159 15.9545H12.8693C13.1761 15.9545 13.483 16.1591 13.5852 16.4148C13.6875 16.6705 13.8409 16.875 14.0455 17.0284C14.3523 17.2841 14.8125 17.3864 15.375 17.3864C15.8864 17.3864 16.2955 17.2841 16.6023 17.1307C16.9091 16.9773 17.0625 16.6705 17.0625 16.3636C17.0625 16.2102 17.0114 16.108 16.9602 16.0057C16.9091 15.9034 16.7557 15.8011 16.6534 15.75C16.5 15.6477 16.3466 15.5966 16.0909 15.5455C15.8864 15.4943 15.6307 15.392 15.3239 15.3409L15.017 15.2386C14.6591 15.1364 14.25 15.0341 13.9432 14.9318C13.5852 14.8295 13.2784 14.6761 13.0227 14.5227C12.767 14.3693 12.5625 14.1648 12.4091 13.858C12.2557 13.6023 12.2045 13.2443 12.2045 12.8352C12.2045 12.4261 12.3068 12.0682 12.4602 11.7614C12.6136 11.4545 12.8693 11.1989 13.125 11.0455C13.4318 10.8409 13.7386 10.6875 14.1477 10.6364C14.5057 10.5341 14.9148 10.483 15.375 10.483C15.8864 10.483 16.2955 10.5341 16.7045 10.6364C17.1136 10.7386 17.4205 10.892 17.7273 11.1477C18.0341 11.3523 18.2386 11.608 18.392 11.9659C18.6477 12.4261 18.2898 13.0398 17.7273 13.0398H17.5739C17.267 13.0398 17.0114 12.8864 16.858 12.6307C16.7557 12.4773 16.6534 12.3239 16.5 12.1705C16.2443 11.9659 15.8352 11.8636 15.375 11.8636C14.9148 11.8636 14.5568 11.9659 14.3011 12.1193C14.0455 12.2727 13.9432 12.5284 13.9432 12.7841C13.9432 12.9375 13.9943 13.0398 14.0455 13.142C14.0966 13.2443 14.1989 13.3466 14.3523 13.3977C14.5057 13.4489 14.6591 13.5511 14.8636 13.6023C15.0682 13.6534 15.3239 13.7045 15.6307 13.8068C15.9375 13.858 16.1932 13.9602 16.5 14.0114C16.7557 14.0625 17.0114 14.1648 17.267 14.2159C17.5227 14.3182 17.7273 14.4205 17.9318 14.5227C18.1364 14.625 18.2898 14.7784 18.4432 14.9318C18.5966 15.0852 18.6989 15.2898 18.75 15.4943C18.8523 15.6989 18.8523 16.0057 18.8523 16.3125C18.75 16.6705 18.6477 17.0284 18.4943 17.3352Z" fill="white"/>
</svg>
